<?xml version="1.0"?><svg width="106.66666666666666" height="106.66666666666666" xmlns="http://www.w3.org/2000/svg">

 <g>
  <title>Layer 1</title>
  <path fill="#ffffff" fill-rule="nonzero" stroke-width="1pt" id="path868" d="m7.93659,92.13546c1.64742,-2.516731 6.96076,-5.358177 9.310511,-6.370522c6.045349,-1.969795 9.619179,1.000633 12.54533,4.034401c2.999371,3.464073 2.226528,4.13887 3.462948,3.386734c4.48315,-3.061264 7.924042,-7.326645 11.597919,-11.306786c6.019951,-6.350761 9.365322,-2.046211 9.551903,2.514389c0.12022,2.310333 0.01997,5.96701 1.912239,7.048775c0.749271,-1.641174 -3.920601,1.154236 0.59095,-1.880173c1.686031,-1.133995 3.403938,-2.144829 5.121849,-3.155319c7.179058,-4.109612 14.696613,-7.916191 19.760944,-4.643028c0.873634,0.890526 0.49762,0.418846 1.146217,1.398582c0.150932,4.08889 -3.615417,5.291359 -6.350914,2.370369c-0.17939,-0.333961 -0.502243,-1.010155 -0.674934,-1.274933c-0.844429,-1.961601 -8.341209,3.893379 -10.1222,4.924721c-5.694763,3.452621 -10.799232,8.377823 -15.322033,5.369133c-2.186539,-2.149353 -2.501789,-5.599197 -2.747299,-9.061287c-0.37402,-5.643654 4.113091,-3.476524 2.577038,-1.987617c-4.283539,4.34726 -8.055218,8.951363 -13.038418,12.493332c-7.91437,4.908699 -10.13151,0.177437 -13.258501,-3.381508c-0.860689,-0.865494 -3.466709,-3.223602 -4.15349,-3.226013c-1.733179,0.537338 -5.02601,3.88549 -5.192969,3.267967c-2.65138,2.918861 -5.715099,2.745125 -6.71709,-0.521217z"/>
  <path fill="none" fill-rule="evenodd" stroke="#ffffff" stroke-width="2.20827" stroke-linejoin="round" id="path832" d="m15.226584,74.506187c2.169419,-7.098557 5.378221,-10.786297 9.1732,-17.060921c4.771009,-7.021408 7.530653,-13.501984 13.969784,-19.972218c6.851631,-8.09676 17.296085,-19.682417 28.210579,-21.395344c11.066643,-0.73719 23.925507,-9.654163 25.904907,-9.087634c-3.514313,6.864582 0.660286,14.556515 -1.598923,21.948475c-1.646149,4.70656 -23.252602,17.009233 -26.244003,18.404055c-3.606056,2.211483 -16.44416,15.749672 -19.968327,18.215443c-3.928371,3.454338 -3.140575,7.829727 -9.250961,7.642639c-0.235214,-0.057594 -12.793375,1.544434 -17.691526,2.221474c-1.874252,5.041199 13.92984,-0.3386 5.72957,3.35482c-3.838564,1.730545 -10.496251,1.757034 -8.2343,-4.27079z"/>
  <path fill="#ffffff" fill-rule="evenodd" stroke-width="1.0000000pt" id="path834" d="m23.720785,67.310616c1.411716,0.095482 13.593195,0.851097 20.187014,-2.575722c-10.91991,1.398903 -17.478724,0.505806 -18.708094,0.683975c-0.288225,0.369125 -0.920963,1.38282 -1.47892,1.891747z"/>
  <path fill="#ffffff" fill-rule="evenodd" stroke-width="1.0000000pt" id="path835" d="m20.137335,73.284737c1.411722,0.095474 14.695837,-1.295082 21.289656,-4.721893c-10.919912,1.398903 -18.384165,2.262451 -19.98999,2.536102c-0.082052,0.575294 -0.741709,1.676857 -1.299665,2.185791z"/>
  <path fill="#ffffff" fill-rule="evenodd" stroke-width="1.0000000pt" id="path836" d="m27.222858,62.679054c1.411722,0.095474 15.892414,1.099483 22.486229,-2.327332c-10.919914,1.398907 -19.504566,0.154327 -20.733936,0.332497c-0.288227,0.369125 -1.19433,1.485905 -1.752293,1.994835z"/>
  <path fill="#ffffff" fill-rule="evenodd" stroke-width="1.0000000pt" id="path837" d="m31.668594,57.364258c1.41172,0.095474 16.116524,1.569271 22.71035,-1.857544c-10.919918,1.398903 -19.522514,-0.418549 -20.751884,-0.240383c-0.288227,0.369125 -1.400505,1.588997 -1.958466,2.097927z"/>
  <path fill="#ffffff" fill-rule="evenodd" stroke-width="1.0000000pt" id="path838" d="m36.786674,51.922009c1.411724,0.095474 15.977558,2.149742 22.571384,-1.277073c-10.919926,1.398907 -19.383545,-0.895935 -20.612915,-0.717766c-0.288219,0.369125 -1.400505,1.485909 -1.958469,1.994839z"/>
  <path fill="#ffffff" fill-rule="evenodd" stroke-width="1.0000000pt" id="path839" d="m42.783104,45.620449c1.41172,0.095467 17.559566,0.702354 23.776924,-0.337513c-8.472927,-0.797089 -20.485996,-1.835495 -21.71537,-1.657326c-0.288223,0.369125 -1.503593,1.485909 -2.061554,1.994839z"/>
  <path fill="#ffffff" fill-rule="evenodd" stroke-width="1.0000000pt" id="path840" d="m49.079823,39.406761c1.41172,0.095478 19.258198,2.818096 25.475567,1.396317c-8.755272,-0.988045 -22.081554,-3.466228 -23.310928,-3.288059c-0.288219,0.369125 -1.606674,1.382816 -2.164639,1.891743z"/>
  <path fill="#ffffff" fill-rule="evenodd" stroke-width="1.0000000pt" id="path841" d="m55.309341,33.979729c1.411724,0.095474 20.145523,3.463608 25.986427,2.232796c-6.21418,-0.60614 -22.283157,-4.508888 -23.512527,-4.330721c-0.288219,0.369127 -1.915936,1.588995 -2.4739,2.097925z"/>
  <path fill="#ffffff" fill-rule="evenodd" stroke-width="1.0000000pt" id="path842" d="m62.471039,28.434391c1.41172,0.095476 19.836266,3.669785 24.92424,3.011831c-6.967087,-0.510656 -21.068626,-4.59675 -22.298004,-4.418581c-0.476448,0.560081 -2.068272,0.897821 -2.626236,1.40675z"/>
  <path fill="#ffffff" fill-rule="evenodd" stroke-width="1.0000000pt" id="path843" d="m70.941368,23.954529c1.41172,0.095476 14.431427,2.802874 19.613533,2.908747c-7.061211,-1.083525 -15.457642,-4.501276 -16.687012,-4.323107c-0.288216,0.369125 -2.368561,0.905432 -2.926521,1.41436z"/>
  <path fill="#ffffff" fill-rule="evenodd" stroke-width="1.0000000pt" id="path844" d="m78.291283,20.414228c1.41172,0.095474 7.457977,1.664749 12.734192,0.720366c-5.743599,-0.128748 -9.264008,-2.129543 -10.493378,-1.951376c-0.288223,0.369125 -1.682854,0.72208 -2.240814,1.23101z"/>
  <path fill="#ffffff" fill-rule="evenodd" stroke-width="1.0000000pt" id="path845" d="m84.117424,16.411762c1.411728,0.095469 3.854698,-0.3403 5.836899,-1.666597c-2.731926,0.539603 -2.931404,-0.1245 -4.160774,0.053668c-0.288216,0.369125 -1.118156,1.104 -1.676125,1.612929z"/>
  <path fill="#ffffff" fill-rule="evenodd" stroke-width="1.0000000pt" id="path846" d="m88.043343,12.416894c1.41172,0.095476 3.164574,-2.463639 3.546814,-4.649237c-0.943741,1.303423 -1.1119,1.96841 -1.588356,2.242054c-0.288216,0.369125 -1.400505,1.898255 -1.958458,2.407184z"/>
  <path fill="#ffffff" fill-rule="evenodd" stroke-width="1pt" id="path857" d="m62.779709,24.437559l-2.474079,1.23703c-0.30925,-0.618519 0.92778,-6.49445 3.401859,-8.040749c-1.237038,2.16482 -2.267899,6.803719 -0.92778,6.803719z"/>
  <path fill="#ffffff" fill-rule="evenodd" stroke-width="1pt" id="path858" d="m70.885986,20.056379l-1.75248,1.030861c-0.30925,-0.618521 -0.206169,-3.50494 2.371002,-4.948151c-1.340126,1.34012 -1.958649,3.91729 -0.618523,3.91729z"/>
  <path fill="#ffffff" fill-rule="evenodd" stroke-width="1pt" id="path859" d="m78.30822,16.75761l-1.752472,1.030859c-0.309258,-0.618519 1.958641,-3.298769 3.711113,-4.74198c-1.855553,2.370991 -2.370995,3.401861 -1.958641,3.711121z"/>
  <path fill="#ffffff" fill-rule="evenodd" stroke-width="1pt" id="path860" d="m84.081062,13.04649l-1.752472,1.03087c-0.309258,-0.61852 2.061737,-2.57717 3.814209,-4.02038c-1.546303,1.85556 -3.401863,2.98951 -2.061737,2.98951z"/>
  <path fill="#ffffff" fill-rule="evenodd" stroke-width="1pt" id="path861" d="m54.804489,29.74651l-2.061741,1.443211c-0.309258,-0.618521 0.103092,-7.319139 1.85556,-8.76235c-1.133949,2.370991 -1.133949,7.319139 0.206181,7.319139z"/>
  <path fill="#ffffff" fill-rule="evenodd" stroke-width="1pt" id="path862" d="m47.691509,35.931709l-1.546299,1.340122c-0.309261,-0.618523 -0.103081,-6.700621 1.958649,-9.174702c-0.92778,1.855551 -1.752468,7.834579 -0.41235,7.834579z"/>
  <path fill="#ffffff" fill-rule="evenodd" stroke-width="1pt" id="path863" d="m40.990891,42.013809l-1.546299,1.34013c-0.309261,-0.618519 0.51543,-6.906799 2.267899,-8.35001c-1.237041,2.061729 -2.061729,7.00988 -0.7216,7.00988z"/>
  <path fill="#ffffff" fill-rule="evenodd" stroke-width="1pt" id="path864" d="m35.527302,47.889751l-1.752472,1.340118c-0.206169,-0.824688 0.103081,-5.77285 1.85556,-7.216061c-1.030869,2.370991 -1.443222,5.875942 -0.103088,5.875942z"/>
  <path fill="#ffffff" fill-rule="evenodd" stroke-width="1pt" id="path865" d="m30.1668,53.559509l-1.546299,1.340122c-0.309261,-0.618523 1.133949,-5.257412 2.68025,-7.216061c-1.237041,2.164818 -2.474081,5.875938 -1.133951,5.875938z"/>
  <path fill="#ffffff" fill-rule="evenodd" stroke-width="1pt" id="path866" d="m25.01247,59.126179l-1.03087,1.237041c-0.309259,-0.618519 1.133961,-2.886421 2.98951,-5.051239c-0.309259,2.267899 -3.298769,3.814198 -1.958639,3.814198z"/>
  <path fill="#ffffff" fill-rule="evenodd" stroke="#ffffff" stroke-width="2.20827" stroke-linejoin="round" id="path833" d="m75.312508,19.250963c-6.101997,2.793417 -13.929047,6.274345 -20.477802,11.616581c-14.957523,12.453962 -20.036182,19.062536 -27.169088,26.386744c0,0 -14.872747,16.839783 -17.80831,32.943344c-0.602979,5.558853 2.657784,4.703651 3.4598,0.641411c2.804004,-15.381905 10.997388,-26.496078 16.36819,-32.195038c6.463587,-7.036766 12.849173,-15.893845 28.275522,-27.749031c5.745075,-4.797224 11.883152,-7.502275 18.089306,-10.343382c6.987419,-2.684855 8.215721,-5.45213 14.225578,-11.509681c-2.474075,2.06173 -8.861206,7.415633 -14.963196,10.209052z"/>
 </g>
</svg>